<svg width="40" height="28" viewBox="0 0 40 28" fill="none" xmlns="http://www.w3.org/2000/svg" xmlns:xlink="http://www.w3.org/1999/xlink">
<path d="M14,17.5C9.32,17.5 0,19.84 0,24.5L0,28L28,28L28,24.5C28,19.84 18.68,17.5 14,17.5ZM4.68,24C6.36,22.84 10.42,21.5 14,21.5C17.58,21.5 21.64,22.84 23.32,24L4.68,24ZM14,14C17.86,14 21,10.86 21,7C21,3.14 17.86,0 14,0C10.14,0 7,3.14 7,7C7,10.86 10.14,14 14,14ZM14,4C15.66,4 17,5.34 17,7C17,8.66 15.66,10 14,10C12.34,10 11,8.66 11,7C11,5.34 12.34,4 14,4ZM28.08,17.62C30.4,19.3 32,21.54 32,24.5L32,28L40,28L40,24.5C40,20.46 33,18.16 28.08,17.62L28.08,17.62ZM26,14C29.86,14 33,10.86 33,7C33,3.14 29.86,0 26,0C24.92,0 23.92,0.26 23,0.7C24.26,2.48 25,4.66 25,7C25,9.34 24.26,11.52 23,13.3C23.92,13.74 24.92,14 26,14Z" fill="#FFFFFF"/>
</svg>
